<?xml version="1.0" encoding="UTF-8" standalone="no"?>
<!-- Created with Inkscape (http://www.inkscape.org/) -->

<svg
   xmlns:dc="http://purl.org/dc/elements/1.1/"
   xmlns:cc="http://creativecommons.org/ns#"
   xmlns:rdf="http://www.w3.org/1999/02/22-rdf-syntax-ns#"
   xmlns:svg="http://www.w3.org/2000/svg"
   xmlns="http://www.w3.org/2000/svg"
   xmlns:sodipodi="http://sodipodi.sourceforge.net/DTD/sodipodi-0.dtd"
   xmlns:inkscape="http://www.inkscape.org/namespaces/inkscape"
   width="120mm"
   height="120mm"
   viewBox="0 0 120 120"
   version="1.1"
   id="svg8"
   inkscape:version="0.92.5 (2060ec1f9f, 2020-04-08)"
   sodipodi:docname="dessin.svg">
  <defs
     id="defs2" />
  <sodipodi:namedview
     id="base"
     pagecolor="#ffffff"
     bordercolor="#666666"
     borderopacity="1.0"
     inkscape:pageopacity="0.0"
     inkscape:pageshadow="2"
     inkscape:zoom="0.7"
     inkscape:cx="135.52073"
     inkscape:cy="117.27661"
     inkscape:document-units="mm"
     inkscape:current-layer="layer1"
     showgrid="false"
     fit-margin-top="0"
     fit-margin-left="0"
     fit-margin-right="0"
     fit-margin-bottom="0"
     inkscape:snap-page="true"
     inkscape:window-width="1920"
     inkscape:window-height="1016"
     inkscape:window-x="0"
     inkscape:window-y="27"
     inkscape:window-maximized="1" />
  <metadata
     id="metadata5">
    <rdf:RDF>
      <cc:Work
         rdf:about="">
        <dc:format>image/svg+xml</dc:format>
        <dc:type
           rdf:resource="http://purl.org/dc/dcmitype/StillImage" />
        <dc:title></dc:title>
      </cc:Work>
    </rdf:RDF>
  </metadata>
  <g
     inkscape:label="Calque 1"
     inkscape:groupmode="layer"
     id="layer1"
     transform="translate(-64.606376,-62.484143)">
    <g
       id="g845"
       transform="translate(21.917035,-0.05053288)">
      <path
         sodipodi:nodetypes="cccscscscsccssccssscscssccccsssccc"
         style="fill:#f4f4f4;fill-opacity:1;stroke-width:0.26458332"
         d="m 101.74153,159.57543 c 8.22968,-3.54823 12.91317,-7.74047 15.32156,-13.71446 2.03766,-5.05443 2.49616,-9.90156 2.05393,-21.71396 -0.54182,-14.47304 -0.32805,-21.5959 0.89911,-29.957102 0.41055,-2.79727 1.84391,-9.073184 2.62054,-11.473878 1.16626,-3.605147 1.40717,-4.497917 1.21375,-4.497917 -0.90525,0 -10.39102,3.257886 -13.16444,4.521327 -0.61061,0.278167 -1.18036,0.505756 -1.2661,0.505756 -0.33498,0 -8.59254,4.231688 -10.333011,5.295281 -4.01285,2.45224 -6.2047,3.958563 -9.22998,6.343184 -1.58833,1.251974 -5.7718,5.175159 -6.94566,6.513519 -0.75228,0.85771 -1.68372,1.91666 -2.06985,2.35322 -1.43292,1.62006 -5.10052,7.49471 -6.3074,10.10302 -4.18761,9.05025 -5.31582,18.61029 -3.47884,29.47845 0.35909,2.1245 1.01008,5.10106 1.44665,6.61458 0.43656,1.51353 0.79145,2.87094 0.78862,3.01646 -0.009,0.4698 -1.84335,-2.56609 -3.34086,-5.52956 -2.64704,-5.2383 -4.487256,-11.02877 -5.128207,-16.13659 -0.416041,-3.31549 -0.197665,-10.90757 0.39279,-13.65573 3.370557,-15.68757 14.345697,-29.313834 32.773487,-40.690144 3.191271,-1.970111 11.930051,-6.405689 12.620211,-6.405689 0.26527,0 0.522,-0.107448 0.57051,-0.238774 0.14188,-0.384116 6.72857,-2.830639 11.47303,-4.261482 4.50807,-1.359548 12.45255,-2.985159 16.06804,-3.287863 l 2.05288,-0.171876 -0.44111,1.135726 c -0.24262,0.62465 -0.52732,1.25479 -0.63268,1.40031 -0.45408,0.627158 -3.1875,7.414977 -4.19103,10.407457 -2.61375,7.794112 -4.41806,17.022513 -5.07812,25.972755 -0.15561,2.11005 -0.38994,10.26583 -0.52073,18.12396 -0.24406,14.66349 -0.32318,15.78228 -1.44634,20.45221 -2.36002,9.8126 -8.59664,15.47188 -20.77551,18.85226 -2.71201,0.75274 -6.77284,1.58215 -7.66503,1.56554 -0.218281,-0.004 0.55563,-0.41806 1.71979,-0.91999 z"
         id="path841"
         inkscape:connector-curvature="0" />
      <path
         sodipodi:nodetypes="ccssscscscsscccccscscscccccscsssc"
         inkscape:connector-curvature="0"
         id="path828"
         d="m 71.760379,182.46394 c 0.0844,-0.21828 2.96538,-5.51253 6.40219,-11.765 3.43682,-6.25246 6.24875,-11.46144 6.24875,-11.57551 0,-0.11407 -2.20265,-0.2074 -4.89479,-0.2074 -2.69213,0 -4.89479,-0.0637 -4.89479,-0.1416 0,-0.0779 0.16281,-0.4053 0.3618,-0.7276 0.199,-0.32231 1.52495,-2.49101 2.94657,-4.81934 1.42162,-2.32833 2.84762,-4.65005 3.16889,-5.15938 0.32127,-0.50932 1.41728,-2.29526 2.43558,-3.96875 1.0183,-1.67349 2.63337,-4.31358 3.58906,-5.86687 0.95568,-1.5533 1.66903,-2.89275 1.58522,-2.97656 -0.0838,-0.0838 -3.01818,-0.1524 -6.52081,-0.1524 h -6.36841 l 3.70053,-3.62412 c 2.03529,-1.99326 7.2724,-7.13805 11.63803,-11.43286 4.36562,-4.29481 10.185101,-10.01607 12.932171,-12.71391 l 4.99467,-4.90515 -1.39454,2.64583 c -0.767,1.45521 -1.77692,3.30068 -2.24425,4.10105 -0.46734,0.80036 -1.36243,2.4077 -1.98909,3.57187 -0.62666,1.16417 -2.48943,4.57189 -4.139481,7.57272 -1.65006,3.00083 -3.00011,5.57814 -3.00011,5.72736 0,0.1747 1.70838,0.27788 4.797741,0.28977 2.63875,0.0102 4.84642,0.0672 4.90593,0.12666 0.0595,0.0595 -0.59522,1.22436 -1.45495,2.58855 -0.85974,1.3642 -2.43121,3.90911 -3.49216,5.65536 -1.929741,3.17621 -4.370361,7.14663 -6.608641,10.75096 -0.65484,1.0545 -1.52045,2.48997 -1.92358,3.18993 l -0.73296,1.27265 h 6.35536 c 3.495441,0 6.355351,0.0955 6.355351,0.21226 0,0.11675 -3.30512,3.48026 -7.344711,7.47448 -21.07483,20.8381 -25.55487,25.21986 -25.41457,24.857 z"
         style="fill:#e91e63;fill-opacity:1;stroke-width:0.26458332" />
    </g>
  </g>
</svg>
